{"glyphs":{"0":{"ha":856,"x_min":0,"x_max":0,"o":"m 497 3 b 756 261 638 29 713 135 b 804 449 776 322 793 385 b 394 1011 853 717 725 1065 b 106 171 60 957 -46 422 b 357 6 163 75 249 26 b 497 3 403 -3 451 -6 z m 418 179 b 406 825 342 299 340 701 b 492 890 418 847 467 885 b 557 881 514 896 538 892 b 490 132 799 751 696 126 b 418 179 460 133 433 154 z "},"1":{"ha":575,"x_min":0,"x_max":0,"o":"m 226 789 b 203 326 222 635 214 481 b 210 28 199 264 175 74 b 272 -4 225 8 249 -1 b 482 21 317 -11 446 -6 b 511 64 496 32 507 47 b 507 408 529 131 510 329 b 514 893 501 571 514 731 b 504 956 514 914 513 936 b 469 990 497 972 486 983 b 247 996 424 1011 294 1014 b 99 860 186 971 147 903 b 0 785 68 832 31 813 b 51 671 -40 747 8 671 b 226 789 94 671 192 760 z "},"2":{"ha":696,"x_min":0,"x_max":0,"o":"m 286 104 b 550 450 385 210 469 329 b 613 879 638 581 700 729 b 374 1003 563 964 465 997 b 85 636 169 1015 -8 842 b 167 661 101 600 160 632 b 256 857 178 707 125 850 b 342 738 317 860 338 786 b 56 118 363 492 172 311 b 57 1 35 85 10 25 b 624 0 82 -11 596 -12 b 622 114 668 21 661 92 b 422 111 581 138 471 117 b 286 104 378 107 332 104 z "},"3":{"ha":704,"x_min":0,"x_max":0,"o":"m 526 590 b 632 779 586 633 626 706 b 72 793 653 1092 110 1097 b 150 763 58 769 124 736 b 265 906 196 807 176 878 b 401 790 340 929 399 861 b 249 597 406 696 351 604 b 138 594 224 596 156 603 b 131 510 107 581 100 529 b 307 481 168 486 254 511 b 322 122 414 418 396 204 b 71 257 214 1 136 264 b 67 110 6 250 46 140 b 660 274 236 -139 647 -29 b 575 549 664 365 628 474 b 526 590 563 567 544 579 z "},"4":{"ha":797,"x_min":0,"x_max":0,"o":"m 633 274 b 785 289 668 274 761 264 b 738 389 821 328 785 385 b 635 379 703 392 669 382 b 643 956 618 496 661 904 b 564 994 631 992 596 992 b 447 993 539 996 468 1000 b 40 457 424 986 61 488 b 15 306 17 419 -25 344 b 343 283 61 261 276 279 b 343 54 343 228 328 103 b 618 39 368 -22 581 -24 b 633 274 644 83 633 219 z m 147 399 b 353 733 154 450 311 683 b 342 386 369 638 350 486 b 147 399 306 386 172 382 z "},"5":{"ha":703,"x_min":0,"x_max":0,"o":"m 285 636 b 300 918 286 678 285 897 b 560 901 361 929 517 883 b 563 1004 604 921 607 983 b 154 1004 536 1017 196 1008 b 83 975 128 1001 101 994 b 67 507 46 933 42 569 b 114 453 75 485 92 463 b 149 444 125 447 136 446 b 264 454 182 440 235 438 b 392 504 303 476 328 603 b 426 278 432 443 433 349 b 400 157 422 236 417 196 b 281 58 379 108 338 61 b 160 279 157 53 192 217 b 94 278 146 307 113 296 b 163 -6 35 219 88 29 b 206 -21 176 -12 192 -17 b 465 669 739 -171 790 611 b 285 636 404 681 339 667 z "},"6":{"ha":746,"x_min":0,"x_max":0,"o":"m 303 618 b 457 875 315 719 372 817 b 506 911 474 886 492 896 b 507 963 519 928 518 944 b 436 1011 496 981 458 1013 b 381 983 424 1010 392 990 b 126 96 124 819 -100 354 b 432 -10 200 13 322 -25 b 575 42 482 -3 533 13 b 656 567 726 146 757 419 b 511 660 622 615 567 646 b 303 618 436 679 363 669 z m 339 154 b 406 539 282 221 286 569 b 450 493 428 533 440 511 b 399 132 488 419 506 154 b 339 154 378 128 353 139 z "},"7":{"ha":639,"x_min":0,"x_max":0,"o":"m 386 753 b 156 138 290 554 196 357 b 156 25 150 108 139 51 b 381 18 183 -18 343 -15 b 426 201 417 50 421 154 b 538 654 444 357 485 507 b 625 872 564 728 600 799 b 613 989 636 906 651 968 b 554 999 594 999 574 999 b 464 994 524 999 494 996 b 89 996 339 990 214 999 b 36 981 71 996 50 994 b 19 919 22 967 21 939 b 38 760 18 886 21 785 b 386 753 82 693 314 743 z "},"8":{"ha":760,"x_min":0,"x_max":0,"o":"m 567 539 b 76 768 1024 1058 107 1182 b 189 507 68 663 113 576 b 367 -36 -53 278 -1 -24 b 532 -11 422 -37 481 -32 b 701 353 672 44 749 210 b 567 539 678 425 619 486 z m 511 603 b 386 728 467 642 421 681 b 410 915 346 782 315 899 b 565 856 460 924 543 906 b 511 603 599 782 553 665 z m 261 457 b 404 322 313 417 363 374 b 169 263 628 40 146 -21 b 261 457 174 317 215 426 z "},"9":{"ha":746,"x_min":0,"x_max":0,"o":"m 444 382 b 289 125 431 281 374 183 b 242 90 274 114 254 106 b 239 38 228 74 226 56 b 301 -10 249 24 285 -7 b 349 6 319 -12 333 -4 b 707 599 557 132 689 358 b 621 904 715 711 697 817 b 267 1000 536 1001 389 1033 b 235 340 -26 921 -60 414 b 444 382 311 321 382 331 z m 342 461 b 381 865 233 489 239 925 b 342 461 486 821 457 432 z "},"\n":{"ha":0,"x_min":0,"x_max":0,"o":""}," ":{"ha":417,"x_min":0,"x_max":0,"o":""},"!":{"ha":411,"x_min":0,"x_max":0,"o":"m 67 636 b 136 325 71 560 78 381 b 279 313 172 290 239 279 b 339 957 349 368 385 876 b 299 996 329 974 315 988 b 97 990 253 1019 142 1019 b 56 710 25 943 50 783 b 67 636 57 690 57 653 z m 253 -22 b 319 13 276 -15 303 -7 b 324 168 351 47 356 132 b 165 201 293 203 208 215 b 253 -22 29 157 69 -74 z "},"\"":{"ha":614,"x_min":0,"x_max":0,"o":"m 226 679 b 251 954 263 721 265 906 b 200 1000 244 978 224 994 b 53 975 161 1008 79 1010 b 92 672 13 922 43 710 b 142 656 106 661 124 657 b 226 679 168 654 208 657 z m 549 672 b 574 949 585 711 588 901 b 522 994 567 972 544 989 b 375 968 483 1004 401 1003 b 414 665 336 915 367 704 b 464 650 428 654 446 650 b 549 672 492 649 528 650 z "},"«":{"ha":614,"x_min":0,"x_max":0,"o":"m 226 679 b 251 954 263 721 265 906 b 200 1000 244 978 224 994 b 53 975 161 1008 79 1010 b 92 672 13 922 43 710 b 142 656 106 661 124 657 b 226 679 168 654 208 657 z m 549 672 b 574 949 585 711 588 901 b 522 994 567 972 544 989 b 375 968 483 1004 401 1003 b 414 665 336 915 367 704 b 464 650 428 654 446 650 b 549 672 492 649 528 650 z "},"»":{"ha":614,"x_min":0,"x_max":0,"o":"m 226 679 b 251 954 263 721 265 906 b 200 1000 244 978 224 994 b 53 975 161 1008 79 1010 b 92 672 13 922 43 710 b 142 656 106 661 124 657 b 226 679 168 654 208 657 z m 549 672 b 574 949 585 711 588 901 b 522 994 567 972 544 989 b 375 968 483 1004 401 1003 b 414 665 336 915 367 704 b 464 650 428 654 446 650 b 549 672 492 649 528 650 z "},"„":{"ha":614,"x_min":0,"x_max":0,"o":"m 226 679 b 251 954 263 721 265 906 b 200 1000 244 978 224 994 b 53 975 161 1008 79 1010 b 92 672 13 922 43 710 b 142 656 106 661 124 657 b 226 679 168 654 208 657 z m 549 672 b 574 949 585 711 588 901 b 522 994 567 972 544 989 b 375 968 483 1004 401 1003 b 414 665 336 915 367 704 b 464 650 428 654 446 650 b 549 672 492 649 528 650 z "},"‟":{"ha":614,"x_min":0,"x_max":0,"o":"m 226 679 b 251 954 263 721 265 906 b 200 1000 244 978 224 994 b 53 975 161 1008 79 1010 b 92 672 13 922 43 710 b 142 656 106 661 124 657 b 226 679 168 654 208 657 z m 549 672 b 574 949 585 711 588 901 b 522 994 567 972 544 989 b 375 968 483 1004 401 1003 b 414 665 336 915 367 704 b 464 650 428 654 446 650 b 549 672 492 649 528 650 z "},"#":{"ha":840,"x_min":0,"x_max":0,"o":"m 632 297 b 772 365 693 297 775 283 b 658 406 771 422 701 406 b 682 499 665 438 674 468 b 810 568 743 499 813 489 b 714 607 807 622 756 607 b 663 864 743 700 818 854 b 599 851 642 865 617 865 b 510 607 553 814 522 665 l 406 607 b 356 868 435 701 513 857 b 292 856 335 869 308 869 b 203 608 247 818 214 667 b 68 575 168 607 82 617 b 176 499 43 503 131 499 b 153 406 168 468 161 436 b 54 397 131 406 72 406 b 61 304 14 379 24 318 b 129 297 82 297 107 297 b 128 51 118 240 75 93 b 285 58 160 26 264 13 b 324 299 303 97 314 243 l 436 299 b 435 47 425 240 382 89 b 593 57 468 21 574 8 b 632 297 619 121 615 226 z m 350 406 b 374 500 358 438 365 468 l 485 500 b 461 406 476 468 468 438 l 350 406 z "},"$":{"ha":690,"x_min":0,"x_max":0,"o":"m 406 18 b 625 167 500 31 585 76 b 346 693 739 421 419 510 b 361 825 332 729 324 800 b 476 799 396 849 450 826 b 522 629 525 747 504 688 b 625 608 535 590 597 578 b 619 747 651 638 624 710 b 389 953 606 875 507 935 b 404 1103 392 979 414 1085 b 290 1106 392 1128 304 1132 b 285 954 281 1086 285 983 b 74 794 196 940 113 874 b 433 139 -85 471 471 294 b 364 96 426 113 388 99 b 104 254 213 81 161 231 b 40 201 68 269 38 236 b 303 22 47 103 221 36 b 321 -183 300 -19 283 -160 b 388 -182 339 -194 372 -197 b 406 18 411 -158 400 -21 z "},"%":{"ha":965,"x_min":0,"x_max":0,"o":"m 276 -7 b 313 39 294 1 304 22 b 389 203 339 93 360 150 b 482 356 417 256 451 304 b 744 807 571 507 647 661 b 833 954 764 836 832 924 b 771 1017 836 990 800 1007 b 713 1028 758 1021 725 1031 b 681 999 697 1024 689 1011 b 601 836 649 949 631 888 b 453 579 551 750 501 665 b 269 281 396 478 331 379 b 150 53 244 239 146 93 b 168 18 151 40 158 28 b 276 -7 190 -4 247 -21 z m 304 501 b 357 958 472 551 507 871 b 85 906 268 1010 147 988 b 53 583 28 829 13 669 b 304 501 93 497 221 476 z m 283 588 b 307 878 188 603 226 881 b 283 588 418 874 378 572 z m 817 15 b 842 463 960 85 981 379 b 582 426 761 511 646 496 b 556 58 510 350 486 142 b 817 15 610 -7 743 -21 z m 768 92 b 779 381 679 107 706 356 b 768 92 893 419 876 72 z "},"&":{"ha":928,"x_min":0,"x_max":0,"o":"m 647 96 b 874 76 697 -81 874 49 b 822 226 874 104 833 193 b 774 422 801 289 797 364 b 863 422 803 428 833 419 b 874 524 919 428 917 504 b 636 525 835 542 690 524 b 521 506 607 526 539 535 b 525 433 510 488 513 450 b 610 425 544 410 583 421 b 342 247 660 104 403 58 b 369 479 322 306 317 436 b 476 496 407 510 446 485 b 504 551 497 503 503 532 b 464 653 506 583 504 644 b 400 657 443 657 421 651 b 388 851 338 675 354 813 b 526 892 414 883 488 906 b 594 692 621 857 571 749 b 674 678 607 660 651 651 b 686 782 696 703 689 751 b 553 990 678 881 651 951 b 172 553 235 1115 -44 733 b 647 96 -176 299 200 -237 z "},"'":{"ha":292,"x_min":0,"x_max":0,"o":"m 226 682 b 251 957 263 724 265 907 b 200 1003 244 981 222 997 b 53 976 163 1013 79 1011 b 92 674 14 924 44 711 b 142 658 106 663 124 658 b 226 682 169 657 206 658 z "},"‚":{"ha":292,"x_min":0,"x_max":0,"o":"m 226 682 b 251 957 263 724 265 907 b 200 1003 244 981 222 997 b 53 976 163 1013 79 1011 b 92 674 14 924 44 711 b 142 658 106 663 124 658 b 226 682 169 657 206 658 z "},"‛":{"ha":292,"x_min":0,"x_max":0,"o":"m 226 682 b 251 957 263 724 265 907 b 200 1003 244 981 222 997 b 53 976 163 1013 79 1011 b 92 674 14 924 44 711 b 142 658 106 663 124 658 b 226 682 169 657 206 658 z "},"‹":{"ha":292,"x_min":0,"x_max":0,"o":"m 226 682 b 251 957 263 724 265 907 b 200 1003 244 981 222 997 b 53 976 163 1013 79 1011 b 92 674 14 924 44 711 b 142 658 106 663 124 658 b 226 682 169 657 206 658 z "},"›":{"ha":292,"x_min":0,"x_max":0,"o":"m 226 682 b 251 957 263 724 265 907 b 200 1003 244 981 222 997 b 53 976 163 1013 79 1011 b 92 674 14 924 44 711 b 142 658 106 663 124 658 b 226 682 169 657 206 658 z "},"(":{"ha":461,"x_min":0,"x_max":0,"o":"m 419 -36 b 365 89 492 4 389 64 b 250 508 265 192 246 372 b 411 886 256 657 303 782 b 474 954 432 907 461 926 b 389 1024 496 1007 435 1044 b 314 975 364 1013 336 992 b 132 782 243 924 176 858 b 343 -35 -22 519 0 64 b 419 -36 365 -42 397 -49 z "},")":{"ha":453,"x_min":0,"x_max":0,"o":"m 82 -50 b 171 8 104 -44 153 -7 b 346 222 242 68 304 139 b 82 1015 479 492 425 939 b 4 936 17 1031 -54 992 b 68 890 24 918 49 908 b 207 478 171 796 204 611 b 69 92 210 336 168 196 b 10 21 50 71 19 49 b 82 -50 -7 -25 39 -61 z "},"*":{"ha":540,"x_min":0,"x_max":0,"o":"m 328 678 b 478 626 360 661 446 593 b 507 694 489 638 508 679 b 394 774 503 731 422 758 b 506 846 418 788 499 821 b 440 932 513 869 471 939 b 326 867 418 928 353 881 b 240 1022 324 963 354 1039 b 210 1008 231 1021 217 1017 b 213 868 197 994 213 893 b 90 933 186 881 113 936 b 54 899 74 931 63 911 b 146 774 3 825 89 803 b 63 626 83 743 -19 713 b 85 615 68 621 76 615 b 213 678 111 614 186 664 b 304 522 213 607 186 489 b 328 678 349 535 329 642 z "},"+":{"ha":638,"x_min":0,"x_max":0,"o":"m 400 304 b 608 338 444 304 588 290 b 614 407 618 358 615 385 b 572 467 613 442 618 467 l 400 467 b 306 686 400 558 438 703 b 239 467 201 674 239 542 b 58 461 206 468 85 469 b 31 347 14 446 21 383 b 49 317 33 335 39 325 b 238 306 79 293 197 304 b 303 97 238 240 210 103 b 400 140 343 94 400 85 l 400 304 z "},",":{"ha":319,"x_min":0,"x_max":0,"o":"m 179 -17 b 115 -176 185 -90 115 -165 b 199 -153 117 -215 189 -161 b 232 171 281 -81 353 99 b 93 181 193 194 135 200 b 179 -17 -35 119 31 -100 z "},"-":{"ha":638,"x_min":0,"x_max":0,"o":"m 238 306 b 606 332 292 308 579 286 b 604 458 617 351 621 444 b 572 467 596 465 583 467 l 283 467 b 58 461 239 467 90 472 b 49 317 10 443 17 343 b 238 306 78 293 197 304 z "},".":{"ha":314,"x_min":0,"x_max":0,"o":"m 224 19 b 168 258 315 63 315 254 b 76 35 43 261 -28 114 b 224 19 118 3 176 -3 z "},"/":{"ha":419,"x_min":0,"x_max":0,"o":"m 111 -54 b 138 -36 121 -50 131 -44 b 156 10 149 -24 153 -6 b 231 321 176 118 197 215 b 319 642 264 426 290 535 b 439 997 350 753 418 896 b 432 1044 442 1013 443 1031 b 306 1065 413 1069 332 1078 b 282 1029 292 1058 286 1043 b 247 864 265 976 263 918 b 161 568 218 765 189 667 b 24 129 119 421 68 276 b -8 26 14 94 -3 63 b 111 -54 -19 -43 54 -76 z "},":":{"ha":347,"x_min":0,"x_max":0,"o":"m 247 483 b 192 724 343 528 335 719 b 100 499 67 728 -4 576 b 247 483 142 467 200 461 z m 233 19 b 178 258 325 63 325 254 b 86 35 53 261 -18 114 b 233 19 128 3 186 -3 z "},";":{"ha":350,"x_min":0,"x_max":0,"o":"m 253 483 b 197 724 347 528 342 719 b 106 499 74 728 1 578 b 253 483 147 467 206 461 z m 188 -17 b 124 -176 193 -90 124 -165 b 207 -153 125 -215 197 -161 b 240 171 289 -81 361 99 b 101 181 201 194 143 200 b 188 -17 -26 119 39 -100 z "},"<":{"ha":546,"x_min":0,"x_max":0,"o":"m 238 347 b 213 367 229 354 218 357 b 511 564 244 442 492 515 b 418 653 528 604 460 671 b 317 572 403 646 339 588 b 31 381 251 528 64 436 b 51 289 10 346 26 315 b 231 164 100 236 169 201 b 418 63 264 143 382 58 b 471 96 439 65 458 79 b 501 201 492 122 519 167 b 238 347 483 236 281 336 z "},"=":{"ha":658,"x_min":0,"x_max":0,"o":"m 247 467 b 615 493 301 468 589 447 b 614 619 626 513 631 604 b 582 628 606 628 593 628 l 293 628 b 68 622 249 628 100 633 b 58 478 19 604 25 503 b 247 467 88 456 207 465 z m 251 210 b 615 236 304 211 589 192 b 614 363 626 256 631 347 b 582 371 606 371 593 371 l 293 371 b 68 365 249 371 100 376 b 56 224 19 347 26 254 b 251 210 85 193 208 208 z "},">":{"ha":546,"x_min":0,"x_max":0,"o":"m 332 367 b 307 346 325 357 314 354 b 50 210 279 343 69 238 b 40 164 40 196 38 181 b 119 64 46 129 85 72 b 436 240 164 53 392 208 b 525 349 469 264 525 303 b 507 393 525 365 518 381 b 217 582 460 450 288 529 b 114 657 194 599 138 654 b 39 557 74 661 17 596 b 332 367 61 518 322 428 z "},"?":{"ha":664,"x_min":0,"x_max":0,"o":"m 304 396 b 450 997 717 408 722 875 b 167 1001 364 1036 253 1039 b 54 688 44 949 26 801 b 65 640 58 672 58 654 b 144 658 82 610 135 632 b 163 869 157 696 110 807 b 314 856 204 919 278 904 b 260 497 379 768 385 535 b 132 478 221 486 163 504 b 106 292 99 447 97 333 b 315 294 124 203 307 232 b 304 396 318 310 307 376 z m 306 7 b 328 40 315 17 324 28 b 132 136 383 185 186 222 b 122 15 114 108 103 44 b 306 7 154 -32 267 -29 z "},"@":{"ha":1094,"x_min":0,"x_max":0,"o":"m 631 700 b 349 265 335 874 226 454 b 572 214 397 190 497 160 b 624 268 593 229 608 247 b 754 172 639 213 699 176 b 881 192 797 169 842 172 b 969 281 919 211 947 244 b 817 958 1118 513 1100 844 b 460 996 707 1003 576 1013 b 289 926 399 988 340 961 b 99 713 211 872 142 799 b 186 61 -1 514 22 219 b 424 -42 250 0 338 -29 b 665 -56 503 -53 585 -64 b 817 3 715 -50 779 -32 b 797 103 846 29 833 90 b 735 92 776 110 754 97 b 240 329 518 24 292 86 b 254 635 219 429 224 538 b 908 517 357 961 908 1024 b 843 300 908 450 893 349 b 799 649 714 175 799 618 b 788 710 799 665 797 696 b 631 700 763 747 650 746 z m 517 331 b 528 607 444 390 475 599 b 517 331 661 629 592 269 z "},"A":{"ha":788,"x_min":0,"x_max":0,"o":"m 214 356 b 446 349 289 358 372 358 b 506 31 451 279 463 79 b 651 1 542 -10 604 -4 b 768 51 690 6 747 13 b 740 256 788 88 751 214 b 646 765 694 422 682 596 b 567 956 632 831 614 904 b 436 1003 533 992 482 999 b 297 988 392 1007 338 1013 b 250 935 276 975 261 956 b 3 32 215 871 14 110 b 78 -7 -1 6 58 -10 b 214 356 147 4 197 288 z m 238 456 b 315 781 261 563 281 676 b 439 457 397 1025 438 485 b 238 456 371 454 306 456 z "},"B":{"ha":881,"x_min":0,"x_max":0,"o":"m 693 522 b 786 606 731 540 761 572 b 335 938 989 889 629 1164 b 318 981 332 953 329 968 b 54 906 286 1015 19 1056 b 63 728 47 876 63 767 b 78 19 63 649 60 51 b 99 0 83 11 90 4 b 307 -10 153 -29 246 -8 b 839 218 511 -17 792 -57 b 693 522 861 343 813 469 z m 368 564 b 365 726 368 617 361 675 b 456 883 371 786 389 865 b 368 564 617 926 606 522 z m 368 461 b 535 435 431 457 478 485 b 533 132 607 372 586 201 b 386 90 503 92 433 64 b 364 117 375 96 368 104 b 368 461 347 161 367 394 z "},"C":{"ha":738,"x_min":0,"x_max":0,"o":"m 578 11 b 696 133 628 39 671 82 b 640 204 721 185 697 244 b 406 115 586 167 501 28 b 438 876 299 213 317 819 b 563 867 472 893 531 890 b 692 683 628 819 568 626 b 717 782 729 701 719 747 b 360 1007 704 976 525 1029 b 243 972 319 1001 278 993 b 222 17 -29 811 -49 182 b 578 11 326 -47 472 -49 z "},"D":{"ha":901,"x_min":0,"x_max":0,"o":"m 338 21 b 651 28 419 -1 574 -10 b 800 176 714 58 767 115 b 511 997 931 413 908 1051 b 361 947 458 990 407 974 b 336 997 358 965 353 986 b 71 986 299 1022 103 1014 b 50 932 56 972 50 951 b 69 769 50 878 67 824 b 63 53 76 626 44 117 b 338 21 92 -49 315 -18 z m 354 114 b 364 828 369 351 364 589 b 486 888 389 854 449 897 b 354 114 629 851 692 3 z "},"E":{"ha":783,"x_min":0,"x_max":0,"o":"m 158 538 b 69 458 114 521 92 500 b 132 31 -1 326 6 126 b 721 88 279 -81 596 -47 b 775 182 746 114 765 147 b 708 253 789 229 768 303 b 663 194 689 236 678 215 b 340 179 588 90 411 44 b 325 400 306 246 300 329 b 543 506 369 528 510 432 b 531 635 557 536 557 610 b 385 661 500 664 426 646 b 413 885 293 694 328 851 b 563 860 454 901 533 900 b 593 786 578 838 578 807 b 638 940 642 722 713 842 b 500 1001 619 964 531 993 b 158 538 160 1090 -32 658 z "},"F":{"ha":658,"x_min":0,"x_max":0,"o":"m 324 467 b 606 468 364 464 582 453 b 600 594 631 485 628 581 b 497 596 582 604 519 597 b 328 747 331 588 328 583 b 339 868 328 774 325 849 b 632 890 365 901 589 856 b 635 1000 656 910 660 982 b 561 1008 622 1008 578 1008 b 85 989 499 1007 114 1007 b 74 853 54 969 74 883 b 58 301 71 669 69 485 b 50 88 54 231 47 158 b 63 28 51 68 51 44 b 247 6 88 -8 207 1 b 300 25 265 7 286 11 b 318 260 333 57 318 213 b 324 467 318 329 324 397 z "},"G":{"ha":786,"x_min":0,"x_max":0,"o":"m 607 400 b 472 92 640 288 629 93 b 411 110 451 92 428 97 b 392 822 293 199 333 697 b 560 865 421 886 503 907 b 635 681 631 813 576 701 b 711 697 657 672 697 676 b 717 778 722 713 719 758 b 672 914 711 825 701 875 b 208 947 578 1043 326 1039 b 126 106 1 788 -28 306 b 493 -25 214 -8 354 -57 b 743 410 804 49 697 358 b 744 499 765 435 769 474 b 697 510 731 511 715 511 b 415 489 656 508 432 507 b 413 411 397 469 400 433 b 515 394 431 381 485 393 b 607 400 546 396 576 397 z "},"H":{"ha":1001,"x_min":0,"x_max":0,"o":"m 325 -12 b 357 0 336 -11 349 -8 b 361 185 388 29 363 143 b 369 358 360 243 371 301 b 371 390 369 365 365 385 b 399 393 376 394 392 393 b 590 381 429 393 572 390 b 631 -3 631 357 564 29 b 768 -6 651 -12 739 -6 b 901 0 793 -6 883 -10 b 929 40 915 8 925 25 b 936 711 964 161 939 561 b 935 928 935 783 942 857 b 899 989 932 951 922 979 b 778 989 860 1006 817 992 b 644 794 583 976 638 961 b 624 536 646 760 642 561 b 385 542 603 507 399 500 b 343 964 361 613 408 906 b 51 939 299 1004 78 1003 b 68 778 40 913 65 813 b 67 32 75 693 47 69 b 325 -12 96 -25 271 -21 z "},"I":{"ha":413,"x_min":0,"x_max":0,"o":"m 200 3 b 322 28 238 4 293 3 b 350 82 338 42 346 61 b 350 438 371 188 350 328 b 351 921 350 597 363 763 b 286 999 349 968 333 989 b 89 986 242 1007 124 1017 b 63 919 69 969 64 943 b 65 824 60 888 63 856 b 63 643 69 764 63 703 b 57 118 61 469 51 292 b 76 33 58 92 60 56 b 200 3 104 -3 161 1 z "},"J":{"ha":733,"x_min":0,"x_max":0,"o":"m 401 550 l 400 546 b 293 143 404 440 408 193 b 132 207 233 117 163 153 b 46 431 89 285 150 501 b 17 239 -3 399 6 289 b 118 51 32 169 64 100 b 592 83 249 -67 483 -62 b 668 272 632 139 656 206 b 679 774 699 438 692 607 b 639 983 675 821 668 950 b 464 999 614 1011 503 999 b 369 963 432 999 383 999 b 401 550 365 953 394 579 z "},"K":{"ha":824,"x_min":0,"x_max":0,"o":"m 361 543 b 367 946 356 657 385 850 b 347 982 364 958 358 974 b 213 994 322 1003 242 994 b 65 985 178 994 90 1008 b 60 851 39 961 56 883 b 65 549 71 751 65 650 b 64 235 65 444 69 339 b 64 57 61 175 57 117 b 122 0 69 18 85 6 b 353 17 164 -6 329 -25 b 349 400 368 44 340 340 b 386 403 361 400 374 401 b 471 338 417 383 451 368 b 551 7 510 278 522 54 b 578 -12 557 -3 567 -10 b 817 40 608 -21 807 13 b 771 156 825 63 782 133 b 672 407 729 239 697 317 b 643 468 667 429 658 451 b 557 540 628 486 564 524 b 774 908 536 596 765 857 b 761 947 776 924 772 936 b 693 1000 750 958 707 997 b 361 543 635 1010 411 549 z "},"L":{"ha":672,"x_min":0,"x_max":0,"o":"m 401 -12 b 676 51 442 -8 656 25 b 681 88 685 63 685 75 b 388 131 647 196 465 53 b 344 690 324 194 338 592 b 346 969 350 761 375 908 b 88 1001 317 1032 126 1043 b 60 472 54 965 65 547 b 50 311 56 418 50 365 b 108 43 50 240 57 94 b 401 -12 167 -15 324 -21 z "},"M":{"ha":1154,"x_min":0,"x_max":0,"o":"m 297 688 b 454 211 331 594 404 261 b 635 210 499 168 586 179 b 699 310 669 232 686 272 b 824 633 736 422 765 528 b 815 239 825 501 824 369 b 836 7 813 186 794 44 b 893 -10 851 -7 874 -8 b 1076 14 931 -12 1049 -11 b 1082 226 1107 42 1083 185 b 1106 790 1072 417 1088 601 b 1081 978 1110 836 1117 946 b 793 992 1049 1007 832 1008 b 578 369 704 954 617 394 b 528 438 567 363 532 428 b 482 593 507 485 494 543 b 393 963 463 665 429 924 b 322 996 375 982 347 990 b 153 1008 271 1007 204 1017 b 61 938 107 1001 75 983 b 65 581 38 861 63 669 b 64 93 72 418 69 256 b 54 7 63 64 64 35 b 74 -22 49 -10 57 -18 b 281 -24 108 -29 251 -37 b 321 24 300 -14 314 3 b 326 81 326 42 326 61 b 313 251 326 138 317 194 b 297 688 301 397 301 542 z "},"N":{"ha":919,"x_min":0,"x_max":0,"o":"m 335 778 b 215 1004 335 890 363 1000 b 46 983 182 1006 60 1019 b 60 889 36 957 57 915 b 71 518 74 768 71 640 b 72 25 71 465 63 51 b 93 -3 76 14 83 4 b 218 -14 121 -21 185 -12 b 357 -1 251 -15 335 -29 b 469 776 397 50 288 590 b 526 807 483 792 504 808 b 576 774 547 806 564 789 b 576 28 710 607 522 197 b 797 -1 596 -35 749 -15 b 847 78 839 11 847 38 b 842 239 847 132 839 185 b 700 992 851 446 981 904 b 549 996 651 1007 599 1010 b 335 778 440 965 368 882 z "},"O":{"ha":838,"x_min":0,"x_max":0,"o":"m 507 -25 b 678 75 588 -17 629 11 b 799 596 797 233 814 404 b 447 1003 781 826 717 1007 b 339 994 411 1003 374 1001 b 32 426 89 943 32 640 b 507 -25 32 114 182 -61 z m 393 265 b 467 832 357 415 385 700 b 511 879 475 846 493 876 b 599 864 538 883 574 874 b 636 843 613 858 625 853 b 524 99 733 756 717 106 b 393 265 449 96 407 207 z "},"P":{"ha":822,"x_min":0,"x_max":0,"o":"m 329 292 b 443 267 365 278 404 268 b 803 692 699 254 826 454 b 744 860 797 742 778 821 l 736 868 b 714 894 732 879 722 886 b 321 949 622 982 436 993 b 76 982 307 1011 110 1021 b 63 940 67 971 64 954 b 68 826 60 903 68 864 b 56 142 71 599 53 369 b 103 -4 56 97 63 24 b 329 14 144 -33 297 -33 b 329 292 360 58 332 233 z m 324 392 b 325 763 321 513 314 642 b 428 863 331 821 363 872 b 401 369 632 832 567 382 b 324 392 375 367 347 381 z "},"Q":{"ha":839,"x_min":0,"x_max":0,"o":"m 696 99 b 786 708 818 275 817 504 b 436 1001 757 904 636 1013 b 207 932 347 996 278 993 b 32 426 63 806 32 608 b 389 -28 32 185 122 -11 b 618 13 464 -32 553 -28 b 729 -171 640 -28 696 -150 b 817 -101 775 -199 829 -151 b 696 99 808 -67 721 58 z m 638 206 b 526 314 617 244 579 321 b 467 251 499 310 467 281 b 563 111 467 235 544 143 b 519 99 550 103 535 97 b 435 160 483 101 453 131 b 467 832 339 315 372 681 b 599 864 506 896 533 888 b 636 843 613 858 625 853 b 638 206 726 760 696 329 z "},"R":{"ha":871,"x_min":0,"x_max":0,"o":"m 344 378 b 419 358 369 375 399 375 b 783 21 590 219 471 -122 b 839 67 806 31 829 43 b 708 374 860 118 747 332 b 642 426 689 394 667 413 b 500 993 954 544 857 1058 b 335 925 442 982 383 958 b 303 983 331 946 322 971 b 56 976 267 1007 74 1017 b 51 943 51 967 51 954 b 65 818 51 901 64 860 b 67 600 67 746 65 672 b 64 253 68 485 71 368 b 57 24 61 204 39 61 b 343 -6 86 -36 319 -28 b 344 378 376 26 347 317 z m 388 488 b 353 822 301 529 310 751 b 551 813 400 901 501 872 b 514 517 618 732 611 572 b 388 488 476 496 431 488 z "},"S":{"ha":725,"x_min":0,"x_max":0,"o":"m 522 -1 b 649 104 574 21 618 57 b 692 225 672 140 688 182 b 358 751 715 475 413 560 b 401 892 344 799 339 878 b 568 642 561 926 540 669 b 679 657 600 610 663 608 b 663 797 688 682 665 765 b 247 1015 643 988 413 1075 b 56 828 160 983 90 913 b 457 104 -87 474 522 268 b 188 143 419 8 235 96 b 124 222 164 167 149 199 b 40 226 99 246 67 256 b 57 114 13 196 35 140 b 522 -1 154 -7 381 -61 z "},"T":{"ha":735,"x_min":0,"x_max":0,"o":"m 496 868 b 724 882 535 867 696 864 b 713 1007 756 903 754 996 b 207 1001 646 1025 307 999 b 64 1013 160 1003 111 1013 b 19 1001 49 1013 33 1010 b 0 897 -14 981 -17 931 b 219 867 26 846 167 871 b 203 136 210 624 206 379 b 207 56 203 110 201 82 b 232 6 211 36 217 18 b 406 -11 264 -21 365 -17 b 478 24 432 -7 460 1 b 500 374 524 81 503 296 b 496 868 494 539 494 703 z "},"U":{"ha":871,"x_min":0,"x_max":0,"o":"m 606 4 b 828 742 838 106 832 531 b 797 969 826 790 825 935 b 685 974 774 997 707 1007 b 686 799 663 942 682 839 b 669 301 700 649 708 447 b 599 157 656 250 636 196 b 390 221 513 68 422 114 b 367 651 360 324 361 540 b 375 931 371 736 390 849 b 301 990 367 969 338 983 b 117 992 267 997 146 1006 b 81 954 100 983 89 971 b 64 882 69 932 67 907 b 51 388 44 717 39 553 b 360 -19 67 179 131 17 b 606 4 440 -32 531 -29 z "},"V":{"ha":788,"x_min":0,"x_max":0,"o":"m 475 3 b 539 65 504 14 525 39 b 575 165 556 97 565 131 b 713 683 624 338 667 511 b 785 967 736 776 768 872 b 778 986 786 975 785 982 b 685 993 751 1003 713 1015 b 500 324 632 950 522 419 b 422 164 494 297 465 133 b 367 350 392 185 372 311 b 317 879 343 526 349 704 b 138 997 296 996 249 1008 b 21 947 97 993 42 988 b 47 743 1 910 36 786 b 221 43 89 585 128 144 b 353 -4 254 7 307 0 b 475 3 392 -8 438 -12 z "},"W":{"ha":1149,"x_min":0,"x_max":0,"o":"m 569 143 b 660 33 590 100 621 61 b 1029 79 769 -46 942 -25 b 1068 767 1163 239 1104 578 b 1028 968 1061 803 1040 947 b 938 947 1003 1013 933 1003 b 958 874 939 922 951 897 b 1008 342 1010 701 1019 521 b 876 124 1004 268 982 110 b 824 151 856 126 838 138 b 625 782 632 335 964 788 b 494 726 581 781 517 771 b 488 683 488 713 488 699 b 478 228 494 533 518 375 b 394 121 468 190 443 118 b 367 792 251 129 343 700 b 385 969 376 831 407 936 b 128 997 358 1011 168 1014 b 81 846 86 979 86 885 b 43 335 54 676 38 507 b 299 -6 47 174 125 19 b 569 143 425 -24 504 44 z "},"X":{"ha":800,"x_min":0,"x_max":0,"o":"m 535 639 b 721 867 588 725 654 792 b 753 921 735 882 749 900 b 719 996 758 947 743 982 b 460 742 650 1036 494 792 b 261 1033 418 813 340 1014 b 193 1025 238 1039 215 1033 b 53 932 157 1011 65 971 b 74 850 44 904 60 874 b 196 668 110 786 157 729 b 297 490 232 610 261 549 b 3 43 256 413 -6 88 b 107 -24 8 10 75 -21 b 143 -8 122 -25 132 -19 b 353 378 185 38 307 296 b 544 -7 414 288 471 57 b 583 -26 556 -17 568 -24 b 754 49 621 -32 724 25 b 786 125 781 68 792 92 b 535 639 768 238 596 533 z "},"Y":{"ha":865,"x_min":0,"x_max":0,"o":"m 483 364 b 301 100 463 269 428 90 b 125 147 263 103 146 161 b 103 117 114 140 107 128 b 99 67 97 103 93 81 b 444 -24 124 10 375 -33 b 819 746 763 19 772 501 b 849 940 832 810 853 874 b 828 986 847 957 843 976 b 668 1007 807 1000 697 1007 b 579 978 636 1007 600 1007 b 478 486 539 919 549 561 b 404 469 461 468 428 456 b 306 985 329 515 351 929 b 104 1007 274 1024 151 1008 b 32 1000 85 1007 49 1008 b 21 988 28 999 22 990 b 40 824 6 960 36 858 b 308 354 63 646 79 374 b 483 364 367 349 425 357 z "},"Z":{"ha":747,"x_min":0,"x_max":0,"o":"m 472 903 b 21 192 361 761 36 357 b 69 11 15 133 14 49 b 172 -12 99 -8 138 -11 b 721 1 247 -15 683 -26 b 697 104 754 25 736 94 b 589 92 678 108 614 93 b 283 99 557 90 289 90 b 613 686 257 135 564 617 b 710 835 646 735 685 781 b 706 1000 729 878 751 967 b 657 1015 692 1010 674 1014 b 581 1008 632 1017 606 1011 b 68 979 496 1000 114 1018 b 69 890 44 958 43 910 b 119 883 83 879 103 882 b 472 903 236 897 354 915 z "},"[":{"ha":464,"x_min":0,"x_max":0,"o":"m 282 -61 b 421 -49 313 -61 397 -64 b 440 39 446 -33 451 14 b 326 53 422 78 360 53 b 318 139 315 53 318 129 b 315 871 318 383 294 626 b 326 942 317 885 318 933 b 439 942 336 951 410 931 b 460 1032 474 954 475 1004 b 222 1050 438 1074 271 1049 b 83 1032 189 1051 106 1060 b 69 992 74 1019 71 1007 b 68 638 54 876 71 754 b 64 296 65 524 67 410 b 86 -51 63 238 40 -22 b 282 -61 124 -75 235 -62 z "},"\\":{"ha":419,"x_min":0,"x_max":0,"o":"m 426 -15 b 425 42 433 4 431 22 b 332 335 399 140 364 238 b 176 854 275 507 228 681 b 139 1025 160 910 154 969 b 119 1063 135 1038 131 1054 b -19 997 83 1089 -35 1072 b 75 724 -3 918 49 807 b 165 400 108 617 135 508 b 226 201 185 333 208 268 b 282 -36 239 154 261 -10 b 426 -15 313 -75 408 -64 z "},"]":{"ha":464,"x_min":0,"x_max":0,"o":"m 140 53 b 28 46 107 50 51 76 b 26 -32 15 29 17 -14 b 374 -53 47 -72 338 -74 b 393 -33 382 -47 388 -42 b 404 21 403 -17 403 3 b 399 332 410 124 400 229 b 397 896 396 521 397 708 b 375 1038 397 931 401 1014 b 221 1050 349 1060 256 1050 b 33 1054 185 1050 56 1060 b 1 1025 18 1050 7 1039 b 138 942 -51 899 128 953 b 140 53 171 907 154 71 z "},"^":{"ha":618,"x_min":0,"x_max":0,"o":"m 290 832 b 367 507 317 735 325 593 b 586 518 400 438 574 482 b 465 939 601 560 496 889 b 397 999 450 965 426 989 b 213 975 343 1015 254 1019 b 28 538 160 919 53 624 b 63 471 19 506 33 483 b 160 496 94 458 140 465 b 201 626 181 529 189 588 b 290 832 225 697 256 765 z "},"_":{"ha":725,"x_min":0,"x_max":0,"o":"m 279 -175 b 710 -150 347 -175 671 -196 b 724 -112 719 -139 722 -126 b 715 3 726 -92 728 -12 b 672 17 706 15 688 17 b 135 18 493 17 314 22 b -8 -22 90 17 14 25 b 6 -154 -24 -54 -18 -126 b 279 -175 42 -196 222 -175 z "},"a":{"ha":788,"x_min":0,"x_max":0,"o":"m 494 126 b 521 13 497 92 493 38 b 753 47 565 -26 726 -4 b 740 225 769 78 744 186 b 754 578 726 350 753 457 b 700 683 756 624 740 660 b 528 668 650 713 563 725 b 357 718 476 699 415 711 b 64 99 60 751 -53 301 b 339 -6 118 4 235 -39 b 494 126 406 17 456 71 z m 363 132 b 442 593 231 150 292 668 b 363 132 561 533 482 115 z "},"b":{"ha":849,"x_min":0,"x_max":0,"o":"m 343 64 b 611 28 413 4 528 -1 b 381 633 996 165 846 972 b 376 975 383 694 408 938 b 42 938 338 1019 61 1051 b 65 461 26 851 64 575 b 72 75 68 333 63 201 b 79 31 74 63 74 43 b 343 64 101 -24 335 -47 z m 450 544 b 538 540 479 564 510 567 b 554 292 592 489 579 356 b 450 544 439 -3 221 258 z "},"c":{"ha":654,"x_min":0,"x_max":0,"o":"m 497 -1 b 618 58 539 13 585 29 b 569 138 664 99 626 157 b 374 125 513 118 429 78 b 365 564 294 192 329 475 b 406 615 374 585 385 604 b 525 471 496 663 497 508 b 618 478 544 444 603 449 b 558 671 639 518 586 639 b 293 760 496 740 386 782 b 292 -21 -17 683 -118 50 b 497 -1 361 -33 431 -22 z "},"d":{"ha":815,"x_min":0,"x_max":0,"o":"m 474 158 b 519 14 476 117 483 40 b 747 58 564 -18 735 -7 b 732 338 758 117 732 264 b 763 760 732 478 740 621 b 783 903 769 807 781 854 b 774 958 785 921 783 942 b 501 968 740 1013 539 1021 b 467 650 465 917 464 718 b 150 26 50 949 -121 196 b 474 158 285 -58 404 46 z m 319 186 b 354 596 250 243 250 579 b 406 574 372 599 394 588 b 319 186 492 456 426 99 z "},"e":{"ha":636,"x_min":0,"x_max":0,"o":"m 340 263 b 486 289 388 269 442 271 b 365 746 683 367 651 738 b 301 -36 -15 758 -139 28 b 518 -14 374 -47 449 -39 b 614 67 554 0 607 24 b 565 124 618 96 594 124 b 483 101 536 124 511 108 b 340 263 372 74 350 179 z m 332 358 b 336 489 331 401 329 446 b 369 583 340 521 350 557 b 407 381 456 699 513 444 b 332 358 385 367 357 364 z "},"f":{"ha":671,"x_min":0,"x_max":0,"o":"m 451 388 b 593 404 492 386 561 376 b 585 626 633 439 635 603 b 439 632 560 639 471 632 b 514 840 432 688 415 871 b 606 806 535 833 589 804 b 644 919 650 808 669 889 b 422 992 617 954 465 986 b 178 617 171 1022 160 797 b 47 608 150 618 69 619 b 60 389 -10 579 -10 406 b 176 390 97 379 139 388 b 183 22 179 336 176 44 b 436 11 200 -36 399 -22 b 451 388 481 50 454 324 z "},"g":{"ha":779,"x_min":0,"x_max":0,"o":"m 493 713 b 418 753 471 731 446 744 b 171 86 33 869 -119 233 b 454 124 269 36 368 63 b 460 56 456 101 458 78 b 321 -335 158 25 107 -281 b 532 -306 390 -351 469 -337 b 671 -182 588 -278 639 -236 b 740 72 717 -106 735 -15 b 731 494 750 213 725 354 b 724 714 732 540 744 681 b 493 713 681 782 546 754 z m 353 215 b 324 603 261 240 279 535 b 419 631 343 633 388 663 b 353 215 471 578 456 188 z m 463 -26 b 428 -207 464 -78 461 -165 b 310 -244 403 -237 349 -265 b 274 -149 279 -228 265 -181 b 463 -26 289 -85 403 -37 z "},"h":{"ha":796,"x_min":0,"x_max":0,"o":"m 340 511 l 338 569 b 490 768 392 631 453 696 b 149 974 608 1000 281 1072 b 101 918 128 958 114 940 b 65 803 82 882 72 843 b 49 189 32 603 53 390 b 50 81 47 153 44 117 b 71 28 53 61 58 43 b 258 -15 106 -14 207 -21 b 343 19 286 -12 325 -4 b 376 408 375 61 317 279 b 426 460 386 429 401 457 b 490 421 451 463 478 440 b 504 25 563 306 464 96 b 667 -18 529 -19 622 -26 b 732 10 690 -14 714 -6 b 767 69 750 25 760 47 b 751 388 790 151 767 301 b 490 611 726 524 660 675 b 340 511 433 590 383 554 z m 336 681 b 394 890 335 708 324 932 b 336 681 463 850 365 722 z "},"i":{"ha":403,"x_min":0,"x_max":0,"o":"m 296 769 b 160 982 467 858 331 1029 b 88 807 100 965 47 860 b 296 769 132 749 233 736 z m 43 246 b 204 -10 46 126 43 -24 b 289 22 233 -7 268 -1 b 363 499 328 67 369 431 b 336 579 360 526 353 556 b 222 631 307 618 269 629 b 76 593 181 632 104 626 b 43 246 39 549 10 290 z "},"j":{"ha":564,"x_min":0,"x_max":0,"o":"m 410 769 b 274 982 581 858 444 1029 b 189 842 219 967 183 896 b 410 769 199 753 344 735 z m 222 146 b 193 -360 -158 57 -107 -392 b 326 -306 242 -354 288 -335 b 525 403 529 -158 538 176 b 486 610 521 472 522 547 b 413 675 469 639 444 663 b 179 606 350 699 192 690 b 204 436 171 556 199 489 b 222 146 213 340 218 243 z "},"k":{"ha":713,"x_min":0,"x_max":0,"o":"m 339 279 b 544 49 392 199 463 100 b 674 18 575 29 640 -17 b 689 93 689 35 703 72 b 632 132 676 113 651 121 b 438 363 561 171 474 290 b 696 554 533 371 696 439 b 515 736 696 628 599 763 b 351 578 447 715 389 636 b 356 958 351 644 375 914 b 57 958 326 1026 86 1017 b 58 818 44 935 56 847 b 56 339 71 658 63 499 b 51 40 53 279 39 86 b 65 11 54 31 58 19 b 221 -7 90 -17 186 -10 b 339 279 393 8 339 143 z m 403 457 b 496 582 411 486 457 594 b 514 494 519 574 525 514 b 403 457 494 461 438 458 z "},"l":{"ha":526,"x_min":0,"x_max":0,"o":"m 300 389 b 503 938 349 511 549 808 b 199 1019 465 1042 288 1047 b 101 908 144 1003 119 960 b 129 21 42 736 -17 147 b 471 107 213 -51 524 -12 b 325 153 446 164 378 76 b 300 389 289 206 300 325 z "},"m":{"ha":1186,"x_min":0,"x_max":0,"o":"m 740 608 b 410 696 713 735 503 742 b 306 610 369 676 335 644 b 281 701 301 640 301 676 b 29 658 238 756 22 731 b 36 619 31 646 33 632 b 56 225 58 504 56 344 b 47 56 56 168 49 113 b 68 -3 47 33 49 11 b 246 -15 94 -21 211 -19 b 314 15 271 -12 299 -6 b 403 589 369 86 272 483 b 506 65 540 700 396 136 b 685 67 549 38 643 39 b 797 553 807 149 681 449 b 821 567 804 558 813 565 b 871 500 849 574 865 519 b 951 13 906 374 840 63 b 1139 44 1004 -11 1100 -4 b 1144 269 1176 93 1149 210 b 1093 636 1138 369 1161 558 b 844 672 1040 696 914 700 b 740 608 807 657 771 635 z "},"n":{"ha":768,"x_min":0,"x_max":0,"o":"m 294 561 b 268 731 297 601 301 703 b 51 704 238 756 64 746 b 46 174 32 640 53 279 b 47 -12 43 133 22 18 b 107 -40 61 -29 86 -36 b 322 13 157 -49 303 -47 b 319 140 328 31 321 115 b 353 496 315 238 319 406 b 433 543 363 522 403 579 b 700 3 536 421 317 -108 b 728 22 711 6 721 13 b 733 238 753 58 738 190 b 585 700 721 379 754 644 b 460 700 544 713 500 713 b 294 561 392 679 329 624 z "},"o":{"ha":708,"x_min":0,"x_max":0,"o":"m 417 -36 b 271 717 793 -7 806 864 b 110 614 204 699 151 672 b 49 483 82 575 63 529 b 236 -11 -12 281 13 67 b 417 -36 293 -31 357 -40 z m 374 151 l 368 165 b 564 499 264 410 436 764 b 424 96 614 393 567 19 b 374 151 399 110 392 132 z "},"p":{"ha":772,"x_min":0,"x_max":0,"o":"m 325 68 b 558 51 394 33 485 25 b 550 704 803 136 832 654 b 322 628 478 717 372 681 b 296 703 319 654 314 683 b 44 696 257 746 74 753 b 40 594 28 665 38 628 b 38 -19 56 392 51 183 b 33 -187 33 -75 22 -132 b 310 -239 51 -278 260 -296 b 325 68 351 -190 329 1 z m 393 194 b 386 543 306 251 325 472 b 501 560 415 576 464 589 b 393 194 625 461 515 115 z "},"q":{"ha":761,"x_min":0,"x_max":0,"o":"m 463 675 b 82 114 165 874 -107 375 b 175 38 106 82 138 53 b 385 78 254 6 321 31 b 394 -215 374 3 339 -154 b 683 -143 447 -272 676 -267 b 678 -54 685 -114 679 -83 b 718 483 667 126 682 307 b 738 638 728 535 740 585 b 463 675 732 760 500 789 z m 271 194 b 429 561 200 363 358 725 b 271 194 483 436 339 35 z "},"r":{"ha":719,"x_min":0,"x_max":0,"o":"m 319 614 b 288 688 313 639 303 667 b 79 707 256 732 115 746 b 60 657 67 693 63 675 b 40 60 39 526 25 197 b 76 -18 43 32 50 -3 b 131 -31 93 -28 113 -29 b 322 1 176 -33 292 -37 b 401 589 378 72 274 433 b 443 611 410 600 428 617 b 508 361 503 588 403 403 b 671 378 551 344 636 342 b 697 600 711 419 710 546 b 365 675 657 779 481 811 b 319 614 349 656 335 635 z "},"s":{"ha":531,"x_min":0,"x_max":0,"o":"m 303 -28 b 497 119 389 -22 471 36 b 272 549 560 318 310 417 b 396 569 243 651 385 647 b 413 444 400 538 376 456 b 481 460 435 438 464 442 b 496 496 490 469 494 482 b 168 700 525 703 329 750 b 35 557 100 679 54 625 b 288 158 -29 331 192 269 b 293 79 306 138 319 100 b 175 79 267 58 203 64 b 94 183 125 107 122 167 b 26 151 68 199 33 179 b 94 31 18 111 65 53 b 303 -28 151 -12 232 -33 z "},"t":{"ha":642,"x_min":0,"x_max":0,"o":"m 419 440 b 531 432 457 435 493 426 b 581 647 611 443 649 610 b 457 661 563 657 482 661 b 463 886 463 717 492 839 b 339 929 439 925 379 926 b 143 669 157 942 147 819 b 44 667 114 674 71 685 b 46 460 0 638 -6 488 b 135 446 74 444 104 446 b 285 -1 128 304 110 50 b 539 31 369 -26 460 -4 b 614 83 565 42 599 58 b 582 161 631 111 628 172 b 428 118 547 153 458 92 b 419 440 386 156 414 382 z "},"u":{"ha":743,"x_min":0,"x_max":0,"o":"m 469 103 b 519 -12 475 65 478 3 b 667 -3 549 -24 639 -17 b 686 154 710 18 689 115 b 692 389 681 232 683 311 b 700 685 699 454 732 632 b 533 733 674 728 579 735 b 483 724 517 733 499 732 b 383 167 406 683 467 294 b 314 135 369 144 342 113 b 318 678 217 213 357 540 b 71 701 292 768 96 747 b 29 332 46 654 32 400 b 194 -3 25 200 50 42 b 329 -1 239 -17 285 -15 b 469 103 386 17 435 54 z "},"v":{"ha":668,"x_min":0,"x_max":0,"o":"m 438 -4 b 497 72 467 13 485 43 b 632 550 553 207 592 404 b 642 703 642 585 676 676 b 576 704 622 718 596 719 b 547 654 561 692 553 672 b 522 519 533 610 532 564 b 406 192 513 475 442 197 b 358 317 382 188 361 299 b 335 507 349 379 342 443 b 249 733 328 575 319 699 b 32 693 199 757 67 739 b 17 643 21 679 17 661 b 161 29 17 554 126 82 b 438 -4 204 -37 376 -40 z "},"w":{"ha":1064,"x_min":0,"x_max":0,"o":"m 539 174 b 613 17 551 132 576 40 b 803 -6 646 -6 761 -8 b 899 24 836 -4 871 3 b 946 106 924 44 938 75 b 996 431 975 211 978 322 b 1044 738 1011 528 1050 639 b 1015 792 1043 761 1039 781 b 942 781 996 800 958 794 b 814 188 886 733 890 203 l 803 201 b 685 692 739 294 757 649 b 563 696 665 703 586 699 b 450 643 522 692 471 683 b 407 178 411 569 503 358 b 385 149 401 168 394 156 b 274 794 321 181 349 744 b 22 753 244 814 31 782 b 128 81 7 703 103 138 b 275 -18 157 15 206 -11 b 539 174 428 -32 497 33 z "},"x":{"ha":635,"x_min":0,"x_max":0,"o":"m 293 217 b 472 -12 325 165 408 -17 b 603 71 507 -10 582 43 b 618 118 613 83 618 101 b 431 415 615 175 469 358 b 606 650 463 457 601 615 b 564 721 608 676 586 710 b 367 518 507 750 396 560 b 211 743 333 569 264 724 b 24 593 158 763 -12 671 b 197 296 54 526 206 356 b 15 51 185 211 15 113 b 49 4 15 31 32 14 b 114 -15 67 -7 92 -19 b 293 217 143 -10 269 182 z "},"y":{"ha":732,"x_min":0,"x_max":0,"o":"m 418 119 l 410 63 b 292 -18 369 36 328 13 b 214 -147 254 -51 224 -97 b 639 -249 171 -376 514 -475 b 683 432 715 -112 678 265 b 696 615 685 493 693 554 b 657 736 697 649 696 722 b 479 732 638 743 500 736 b 340 200 339 704 494 197 b 315 731 213 203 363 671 b 261 756 301 747 281 753 b 86 749 221 763 118 776 b 42 518 50 718 44 568 b 60 176 35 403 7 286 b 261 58 97 97 174 54 b 418 119 318 61 374 83 z m 421 -28 b 417 -190 419 -82 424 -137 b 382 -275 414 -208 400 -268 b 324 -239 364 -282 333 -253 b 421 -28 264 -153 354 -69 z "},"z":{"ha":674,"x_min":0,"x_max":0,"o":"m 346 122 b 600 729 431 218 797 608 b 299 761 553 758 361 761 b 61 742 250 761 96 768 b 83 632 18 710 29 644 b 265 633 136 621 211 632 b 379 606 294 635 364 635 b 49 196 413 540 100 254 b 21 61 18 160 8 106 b 56 11 26 42 39 22 b 440 -4 113 -28 364 -3 b 622 29 485 -6 594 -12 b 582 126 649 68 632 121 b 346 122 507 136 422 119 z "},"{":{"ha":531,"x_min":0,"x_max":0,"o":"m 251 472 b 301 504 268 483 286 492 b 365 932 429 604 331 796 b 549 982 393 1040 507 936 b 526 1075 572 1008 567 1068 b 308 1086 447 1089 390 1101 b 101 561 18 1031 161 665 b 38 492 85 532 58 517 b 89 392 8 458 74 421 b 186 -36 158 263 47 64 b 294 -83 218 -58 257 -75 b 538 -17 350 -96 531 -96 b 490 42 540 13 522 44 b 358 96 418 36 374 -26 b 326 414 349 179 383 356 b 251 472 304 436 275 451 z "},"}":{"ha":531,"x_min":0,"x_max":0,"o":"m 281 472 b 201 410 256 450 224 436 b 176 126 151 353 181 203 b 26 40 165 -61 92 58 b -6 -24 1 33 -11 0 b 60 -75 0 -53 33 -67 b 271 -74 128 -96 203 -97 b 433 371 499 4 381 204 b 501 461 450 422 494 439 b 432 557 510 492 449 531 b 253 1079 367 663 511 1000 b 29 1078 172 1104 110 1092 b -17 1064 13 1075 -3 1076 b -17 982 -39 1043 -36 1004 b 146 971 15 944 101 1007 b 172 789 181 943 175 831 b 281 472 161 644 133 556 z "},"~":{"ha":785,"x_min":0,"x_max":0,"o":"m 554 264 b 710 393 619 285 667 343 b 758 508 735 422 772 467 b 701 542 750 532 726 549 b 542 424 656 531 597 424 b 271 554 490 424 361 549 b 38 297 171 560 -26 365 b 224 397 125 203 153 403 b 554 264 301 392 403 215 z "}," ":{"ha":417,"x_min":0,"x_max":0,"o":""},"¢":{"ha":683,"x_min":0,"x_max":0,"o":"m 424 96 b 647 197 481 104 619 144 b 594 257 665 232 629 265 b 525 233 571 251 549 240 b 340 465 336 175 338 329 b 418 733 342 529 354 701 b 538 588 510 779 508 625 b 631 594 558 561 615 565 b 632 646 639 611 636 629 b 418 876 604 772 546 842 b 422 967 418 906 425 938 b 325 993 418 1011 354 1013 b 307 876 294 974 301 907 b 313 94 -8 797 -107 161 b 314 19 313 69 307 44 b 424 8 326 -24 406 -32 b 424 96 435 36 426 68 z "},"£":{"ha":839,"x_min":0,"x_max":0,"o":"m 442 236 b 467 357 461 272 465 317 b 686 358 518 357 649 333 b 721 468 717 378 719 435 b 701 540 721 492 721 524 b 428 553 663 572 481 558 b 394 844 399 633 340 765 b 549 857 429 896 504 897 b 596 679 606 806 571 725 b 650 658 604 664 633 656 b 683 799 714 667 689 757 b 163 538 642 1150 -11 1043 b 76 535 133 536 106 538 b 63 356 18 529 35 383 b 222 351 90 328 186 347 b 51 144 268 135 72 254 b 85 15 44 111 58 39 b 153 1 103 -1 131 -3 b 289 31 199 10 242 29 b 735 -1 435 38 588 -35 b 767 247 846 24 826 225 b 661 243 735 258 693 249 b 442 236 588 231 515 229 z "},"¤":{"ha":583,"x_min":0,"x_max":0,"o":"m 199 208 b 376 224 257 193 322 197 b 503 179 419 153 414 118 b 517 199 510 183 517 190 b 450 297 517 218 464 275 b 474 546 492 371 494 465 b 553 657 485 563 551 649 b 543 682 554 667 549 675 b 410 654 469 774 463 718 b 176 667 343 707 249 708 b 128 738 165 683 143 729 b 38 674 101 753 35 703 b 99 585 39 653 85 604 b 106 271 60 506 54 346 b 61 207 93 247 74 231 b 150 135 39 164 124 122 b 199 208 165 142 190 192 z m 325 300 b 319 588 240 321 251 553 b 365 317 401 629 451 397 b 325 300 356 307 340 296 z "},"¥":{"ha":749,"x_min":0,"x_max":0,"o":"m 524 199 b 706 226 560 199 688 189 b 708 269 713 240 710 256 b 703 296 708 278 708 289 b 518 306 689 313 525 306 b 515 371 517 328 517 349 l 604 371 b 703 442 664 371 707 369 b 694 469 703 451 703 463 b 510 476 681 482 517 476 l 508 490 b 696 936 535 568 697 892 b 578 1001 694 972 607 1026 b 407 600 568 993 421 632 b 283 965 368 703 325 885 b 251 997 276 979 267 992 b 51 946 215 1010 79 978 b 157 572 14 903 133 625 b 213 478 172 539 193 508 b 53 458 178 478 75 483 b 61 385 36 439 43 401 b 229 369 86 363 194 368 b 228 306 228 349 228 326 b 74 297 199 306 94 308 b 51 274 64 292 54 285 b 222 197 21 179 174 197 b 242 4 221 151 201 35 b 439 -17 272 -19 397 -19 b 524 199 560 -10 531 114 z "},"­":{"ha":0,"x_min":0,"x_max":0,"o":""},"±":{"ha":665,"x_min":0,"x_max":0,"o":"m 418 461 b 626 494 463 461 607 447 b 632 564 636 517 632 540 b 590 624 631 599 636 624 l 418 624 b 400 829 419 664 429 803 b 318 842 379 849 344 846 b 267 818 300 839 278 833 b 257 624 247 790 257 663 b 49 504 160 628 1 657 b 256 463 69 436 200 461 b 358 254 256 346 219 250 b 406 261 372 254 394 253 b 418 461 429 278 418 435 z m 244 -14 b 613 13 299 -12 585 -32 b 611 139 624 31 628 125 b 579 147 603 146 590 147 l 290 147 b 65 140 244 147 100 151 b 56 -3 17 124 24 24 b 244 -14 85 -26 204 -15 z "},"×":{"ha":557,"x_min":0,"x_max":0,"o":"m 271 275 b 458 160 311 235 396 114 b 524 236 474 171 525 219 b 388 388 522 260 411 364 b 464 619 457 453 597 539 b 276 504 396 661 319 547 b 146 629 251 529 171 617 b 36 536 103 651 32 576 b 160 392 40 496 129 421 b 38 228 126 363 19 276 b 81 175 46 206 64 190 b 125 144 93 164 107 143 b 271 275 146 146 249 254 z "},"÷":{"ha":636,"x_min":0,"x_max":0,"o":"m 365 522 b 378 640 411 542 418 611 b 249 608 338 669 269 656 b 365 522 218 538 310 497 z m 236 306 b 604 332 290 308 578 286 b 603 458 615 351 619 444 b 571 467 594 465 582 467 l 282 467 b 57 461 238 467 89 472 b 47 317 8 443 15 343 b 236 306 76 293 196 304 z m 394 149 b 256 219 464 240 303 313 b 394 149 215 139 347 88 z "},"‘":{"ha":292,"x_min":0,"x_max":0,"o":"m 226 682 b 251 957 263 724 265 907 b 200 1003 244 981 222 997 b 53 976 163 1013 79 1011 b 92 674 14 924 44 711 b 142 658 106 663 124 658 b 226 682 169 657 206 658 z "},"’":{"ha":292,"x_min":0,"x_max":0,"o":"m 226 682 b 251 957 263 724 265 907 b 200 1003 244 981 222 997 b 53 976 163 1013 79 1011 b 92 674 14 924 44 711 b 142 658 106 663 124 658 b 226 682 169 657 206 658 z "},"“":{"ha":614,"x_min":0,"x_max":0,"o":"m 226 679 b 251 954 263 721 265 906 b 200 1000 244 978 224 994 b 53 975 161 1008 79 1010 b 92 672 13 922 43 710 b 142 656 106 661 124 657 b 226 679 168 654 208 657 z m 549 672 b 574 949 585 711 588 901 b 522 994 567 972 544 989 b 375 968 483 1004 401 1003 b 414 665 336 915 367 704 b 464 650 428 654 446 650 b 549 672 492 649 528 650 z "},"”":{"ha":614,"x_min":0,"x_max":0,"o":"m 226 679 b 251 954 263 721 265 906 b 200 1000 244 978 224 994 b 53 975 161 1008 79 1010 b 92 672 13 922 43 710 b 142 656 106 661 124 657 b 226 679 168 654 208 657 z m 549 672 b 574 949 585 711 588 901 b 522 994 567 972 544 989 b 375 968 483 1004 401 1003 b 414 665 336 915 367 704 b 464 650 428 654 446 650 b 549 672 492 649 528 650 z "},"€":{"ha":835,"x_min":0,"x_max":0,"o":"m 417 322 b 682 344 460 322 661 311 b 683 419 690 358 693 407 b 642 429 678 426 651 429 l 414 429 b 415 494 414 451 414 472 b 664 506 464 493 628 486 b 636 600 690 519 704 600 l 422 600 b 508 872 428 671 444 832 b 639 867 540 893 608 888 b 690 696 696 828 671 728 b 793 708 710 664 782 672 b 793 782 799 724 794 764 b 436 1007 778 976 606 1029 b 117 600 233 981 135 786 b 110 493 -21 600 -1 494 l 110 428 b 121 321 -15 421 10 321 b 300 17 140 201 192 82 b 654 11 406 -47 546 -49 b 774 133 704 39 749 82 b 783 192 782 150 790 174 b 538 92 746 289 658 85 b 417 322 439 97 424 247 z "},"™":{"ha":913,"x_min":0,"x_max":0,"o":"m 243 949 b 344 1008 281 949 394 933 b 35 1010 342 1010 36 1010 b 38 950 13 1000 15 958 b 121 949 50 944 104 949 b 126 568 119 900 103 588 b 213 563 140 556 194 557 b 235 576 221 565 229 569 b 243 949 254 600 243 896 z m 493 858 b 582 660 510 815 540 674 b 669 681 607 651 653 658 b 742 836 694 713 713 792 b 738 681 742 785 742 732 b 767 579 735 651 722 583 b 868 600 788 578 860 576 b 867 632 871 610 868 622 b 874 892 857 718 864 807 b 861 975 876 913 881 961 b 796 982 850 983 810 982 b 721 976 781 982 732 983 b 624 731 686 953 644 744 b 543 961 572 771 571 924 b 435 986 525 986 464 988 b 381 953 410 985 388 981 b 383 621 369 908 389 697 b 378 586 382 610 382 597 b 500 585 372 571 482 561 b 497 718 515 604 499 692 b 493 858 494 765 494 811 z "},"−":{"ha":638,"x_min":0,"x_max":0,"o":"m 238 306 b 606 332 292 308 579 286 b 604 458 617 351 621 444 b 572 467 596 465 583 467 l 283 467 b 58 461 239 467 90 472 b 49 317 10 443 17 343 b 238 306 78 293 197 304 z "},"|":{"ha":306,"x_min":0,"x_max":0,"o":"m 151 -129 b 243 -92 186 -129 229 -131 b 243 171 257 -53 244 118 b 236 797 236 379 238 589 b 235 1011 236 867 244 943 b 219 1054 233 1026 229 1042 b 72 1051 196 1083 96 1079 b 65 913 50 1026 60 944 b 72 597 78 835 72 682 b 63 83 72 426 71 254 b 75 -111 60 40 42 -82 b 151 -129 96 -129 125 -129 z "},"`":{"ha":292,"x_min":0,"x_max":0,"o":"m 244 782 b 265 811 254 790 261 799 b 104 1015 282 868 174 1032 b 24 940 75 1008 32 969 b 35 897 19 925 25 908 b 200 761 49 881 183 763 b 244 782 217 760 233 771 z "},"\u0000":{"ha":0,"x_min":0,"x_max":0,"o":""},"\r":{"ha":0,"x_min":0,"x_max":0,"o":""}}}
